<?xml version="1.0" encoding="iso-8859-1"?>
<!-- Generator: Adobe Illustrator 28.6.0, SVG Export Plug-In . SVG Version: 9.03 Build 54939)  -->
<svg version="1.1" id="Layer_1" xmlns="http://www.w3.org/2000/svg" xmlns:xlink="http://www.w3.org/1999/xlink" viewBox="0 0 283.465 283.465">
<path d="M115.262,224.021c-18.718,0-30.627-11.355-30.627-25.759c0-61.635,162.083-73.975,162.083-139.431
	c0-39.931-46.255-57.142-105.3-57.142c-35.916,0-76.528,6.648-114.243,18.543v78.086c55.581-40.482,117.336-57.812,157.113-57.812
	c25.012,0,41.984,6.979,41.984,19.483c0,51.517-223.541,43.354-223.542,154.672c0,42.668,29.339,67.114,70.617,67.114
	c62.436,0,109.662-60.676,144.992-134.637l7.158,2.571c-18.607,45.198-57.113,94.757-64.613,126.614h80.382V111.506h-18.565
	C195.754,170.062,156.265,224.021,115.262,224.021z"/>
<g>
</g>
<g>
</g>
<g>
</g>
<g>
</g>
<g>
</g>
<g>
</g>
</svg>
