<?xml version="1.0" encoding="UTF-8"?>
<svg xmlns="http://www.w3.org/2000/svg" version="1.1" viewBox="0 0 96 96">
  <!-- Generator: Adobe Illustrator 28.6.0, SVG Export Plug-In . SVG Version: 1.2.0 Build 709)  -->
  <g>
    <g id="Layer_ae_1">
      <path d="M.09.09v95.82h95.82V.09H.09ZM31.65,26.71h8.33l14.2,42.59h-9.73l-2.41-8.71h-12.43l-2.41,8.71h-9.65l14.11-42.59ZM35.79,38.23l-4.21,15.18h8.43l-4.22-15.18ZM67.88,40.51c8.14,0,10.57,7.92,10.57,12.43v4.02h-15.72c.26,1.87,1.02,3.36,2.29,4.49,1.27,1.12,2.87,1.82,4.8,1.68,2.86-.21,6.16-1.92,7.26-2.94v7.04c-1.76,1.03-5.34,2.05-7.77,2.05-4.27,0-7.75-1.28-10.44-3.85-2.68-2.57-4.04-5.99-4.04-10.26v-.74c0-2.86,1.56-13.93,13.05-13.93ZM67.19,46.76c-2.44,0-4.47,2.36-4.47,5.02h8.63c0-2.48-1.61-5.02-4.16-5.02Z"/>
    </g>
  </g>
</svg>