<?xml version="1.0" encoding="UTF-8"?>
<svg xmlns="http://www.w3.org/2000/svg" version="1.1" viewBox="0 0 128 128">
  <!-- Generator: Adobe Illustrator 28.6.0, SVG Export Plug-In . SVG Version: 1.2.0 Build 709)  -->
  <g>
    <g id="Layer_1">
      <path d="M64.26,128c-19.05-.44-34.59-7.66-46.43-22.55-2.69-3.39-3.11-6.85-1.42-10.88,11.85-28.32,23.61-56.69,35.4-85.03,1.98-4.76,5.02-8.42,10.41-9.32,5.04-.84,9.04,1.08,12.03,5.08,1.01,1.34,1.79,2.89,2.44,4.45,11.82,28.33,23.59,56.69,35.43,85.02,1.61,3.85,1.18,7.25-1.4,10.52-11.89,15.08-27.56,22.33-46.46,22.72ZM64.28,17.41c-.46.99-.76,1.59-1.02,2.21-10.68,25.67-21.35,51.34-32.08,76.98-.59,1.41-.39,2.24.61,3.32,17.34,18.72,47.4,18.74,64.81.07,1.09-1.17,1.21-2.08.6-3.53-9.18-21.92-18.3-43.87-27.43-65.82-1.78-4.28-3.56-8.57-5.5-13.24Z"/>
      <path d="M37.38,91.76c2.67-6.42,5.14-12.44,7.71-18.42.28-.66,1.07-1.34,1.77-1.55,11.55-3.62,23.14-3.62,34.7-.03.62.19,1.4.63,1.63,1.16,2.63,6.16,5.17,12.35,7.85,18.82-17.96-11.71-35.63-11.72-53.66.03Z"/>
    </g>
  </g>
</svg>