<?xml version="1.0" encoding="UTF-8"?>
<svg xmlns="http://www.w3.org/2000/svg" version="1.1" viewBox="0 0 800 800">
  <defs>
    <style>
      .cls-1, .cls-2 {
        fill-rule: evenodd;
      }

      .cls-2 {
        display: none;
      }
    </style>
  </defs>
  <!-- Generator: Adobe Illustrator 28.6.0, SVG Export Plug-In . SVG Version: 1.2.0 Build 709)  -->
  <g>
    <g id="Layer_1">
      <path class="cls-2" d="M0,250h550v550H0V250ZM172.55,627.45l78.3,54.16,220.58-156.61v196.43H78.57v-39.29l93.98-54.69ZM172.55,470.15c32.55,0,58.93-26.38,58.93-58.93s-26.38-58.93-58.93-58.93-58.93,26.38-58.93,58.93,26.38,58.93,58.93,58.93Z"/>
    </g>
    <g id="Layer_2">
      <path class="cls-2" d="M0,250v550h550V250H0ZM113.59,752.19h-56.97v-56.97h56.97v56.97ZM113.59,618.38h-56.97v-56.97h56.97v56.97ZM113.59,484.56h-56.97v-56.97h56.97v56.97ZM113.59,350.75h-56.97v-56.97h56.97v56.97ZM193.77,624.81v-199.61l162.47,99.81-162.47,99.81ZM488.08,752.19h-56.97v-56.97h56.97v56.97ZM488.08,618.38h-56.97v-56.97h56.97v56.97ZM488.08,484.56h-56.97v-56.97h56.97v56.97ZM488.08,350.75h-56.97v-56.97h56.97v56.97Z"/>
      <path class="cls-1" d="M459.96,627.45v.32c0,42.57-34.51,77.08-77.08,77.08s-77.08-34.51-77.08-77.08c0-.11,0-.21,0-.32h-77.09v.32c0,42.57-34.51,77.08-77.08,77.08s-77.08-34.51-77.08-77.08,34.51-77.08,77.08-77.08h20.9V250H0v550h550v-172.55h-90.04Z"/>
      <path class="cls-2" d="M250.85,1.18v550h550V1.18H250.85ZM364.44,503.37h-56.97v-56.97h56.97v56.97ZM364.44,369.56h-56.97v-56.97h56.97v56.97ZM364.44,235.74h-56.97v-56.97h56.97v56.97ZM364.44,101.93h-56.97v-56.97h56.97v56.97ZM444.62,375.99v-199.61l162.47,99.81-162.47,99.81ZM738.93,503.37h-56.97v-56.97h56.97v56.97ZM738.93,369.56h-56.97v-56.97h56.97v56.97ZM738.93,235.74h-56.97v-56.97h56.97v56.97ZM738.93,101.93h-56.97v-56.97h56.97v56.97Z"/>
      <path class="cls-1" d="M800.85,551.18H250.85V1.18h550v550ZM710.81,378.95c0,42.57-34.51,77.08-77.08,77.08s-77.08-34.51-77.08-77.08,34.51-77.08,77.08-77.08h25.69v-102.77h-179.85v179.85c0,42.57-34.51,77.08-77.08,77.08s-77.08-34.51-77.08-77.08,34.51-77.08,77.08-77.08h25.69V96.33h282.62v282.62Z"/>
    </g>
  </g>
</svg>