<?xml version="1.0" encoding="UTF-8" standalone="no"?>
<!DOCTYPE svg PUBLIC "-//W3C//DTD SVG 1.1//EN" "http://www.w3.org/Graphics/SVG/1.1/DTD/svg11.dtd">
<svg width="100%" height="100%" viewBox="0 0 1536 1536" version="1.1" xmlns="http://www.w3.org/2000/svg" xmlns:xlink="http://www.w3.org/1999/xlink" xml:space="preserve" xmlns:serif="http://www.serif.com/" style="fill-rule:evenodd;clip-rule:evenodd;stroke-linejoin:round;stroke-miterlimit:2;">
    <g id="image1.png" transform="matrix(3.472938,0,0,3.472938,-2064.825347,-7)">
        <path d="M833.167,398.828C825.574,391.845 820.008,383.934 814.678,373.41C787.907,320.55 807.862,235.676 900.456,224.189C906.062,223.494 914.251,192.847 914.067,174.495C912.692,37.667 731.761,24.949 688.998,128.709C666.525,183.238 688.155,228.425 684.509,228.559C683.307,228.603 653.779,187.153 672.536,120.511C720.277,-49.116 1052.356,-9.032 976.913,246.628C975.159,252.571 989.614,258.056 1001.04,281.733C1049.049,381.211 924.808,483.105 833.167,398.828Z"/>
        <path d="M766.483,224.521C766.218,224.655 765.953,223.983 765.687,224.118C765.562,224.181 764.58,223.949 747.454,296.489C745.684,303.927 733.057,356.991 725.136,389.409C716.181,426.063 716.577,427.223 713.401,427.843C646.067,407.05 638.314,344.81 637.855,335.481C633.341,243.645 720.456,209.893 766.483,224.521Z"/>
        <path d="M766.483,224.521C768.633,229.241 768.612,240.653 773.995,280.438C786.076,369.736 785.21,376.325 788.114,372.155C788.957,370.943 805.59,347.051 801.559,359.518C799.925,364.57 785.424,409.415 780.041,422.315C776.45,430.922 774.987,418.756 764.152,373.588C759.28,353.275 760.651,352.707 759.111,351.797C757.342,350.753 757.826,352.356 755.241,357.366C736.689,393.327 714.901,429.808 713.401,427.843C716.577,427.223 716.181,426.063 725.136,389.409C733.057,356.991 745.684,303.927 747.454,296.489C764.58,223.949 765.562,224.181 765.687,224.118C765.953,223.983 766.218,224.655 766.483,224.521Z" style="fill:rgb(129,129,129);"/>
    </g>
</svg>
