<?xml version="1.0" encoding="UTF-8"?>
<svg xmlns="http://www.w3.org/2000/svg" version="1.1" viewBox="0 0 128 128">
  <!-- Generator: Adobe Illustrator 28.6.0, SVG Export Plug-In . SVG Version: 1.2.0 Build 709)  -->
  <g>
    <g id="Layer_1">
      <g id="Layer_1-2" data-name="Layer_1">
        <g>
          <path d="M107.33,96.67c2.53-2.03,5.06-4.07,7.69-6.17,4.4,54.68-81.82,40.31-101.5,14.9,4.13,1.76,8.25,3.51,12.37,5.27l.69-1.21c-32.17-31.39,15.67-49.48,2.99-76.68,6.15,4.27,10.28,8.07,9.06,16.21,11.86-14.85,22.58-28.64,16.88-48.45,21.55,11.35,47.46,42.8,39.72,67.71.48.27.97.53,1.44.8,2.14-3.87,4.28-7.73,7.12-12.87,7.78,12.46,8.74,25.7,2.86,39.69-.11.32-.21.64-.31.96.33-.05.65-.11.98-.15v-.02ZM94.92,84.67c-.02-.22-.08-.44-.17-.65-.22-.3-.46-.6-.69-.9-.98-8.34-8.85-16.8-25.4-19.17-14.19-2.37-33.79,6.13-34.73,20.07-.45.52-.91,1.05-1.36,1.57.35,1.31.72,2.61,1.08,3.91-.11,1.14-.2,2.28-.31,3.42-.01,1.63-.04,3.26-.05,4.9.18,3.75.37,7.51.54,11.26.06.27.11.54.17.83,1.36,1.67,2.71,3.32,4.07,4.99.26.26.51.52.77.77.24.24.47.48.72.72.84.82,1.68,1.64,2.51,2.46,12.06,14.66,41.82,7.8,52.71-3.91.28-1.69.57-3.39.85-5.09.04-.26.02-.51-.04-.76-.01-3.77-.04-7.54-.05-11.31-.31-1.67-.6-3.33-.91-5.01-.21-.97-.43-1.95-.63-2.92.5-1.42.99-2.85,1.49-4.27-.19-.31-.38-.61-.57-.91h-.01Z"/>
          <path d="M95.55,99.53c.01,2.72.04,5.44.05,8.17h-61.75c-.18-2.71-.37-5.42-.54-8.14.27-.05.54-.09.8-.14,5.26.04,10.52.06,15.79.11,9.28.09,18.57.21,27.86.33,3.77,3.56,7.62,4.59,9.21,2.19,2.14-3.22,5.39-2.33,8.59-2.51h0Z"/>
          <path d="M89.82,115.06c1.66-.05,3.3-.08,4.95-.13-10.88,11.72-40.65,18.59-52.71,3.91,9.78.25,19.57.72,29.35.64,3.19-.02,6.37-1.5,9.57-2.32,1.29-.73,2.58-1.45,3.87-2.19.35.01.7.02,1.05.04,1.31.01,2.61.02,3.93.04h-.01Z"/>
          <path d="M94.63,92.77c-20.43.06-40.86.11-61.28.17.11-1.14.2-2.28.31-3.42,18.91,2.74,41.44,2.97,60.35.33.21.97.43,1.95.64,2.92h-.01Z"/>
          <path d="M80.99,117.18c-3.19.82-6.37,2.28-9.57,2.32-9.78.08-19.57-.38-29.35-.64-.84-.82-1.68-1.64-2.51-2.46,12.55,0,25.08-.04,37.63,0,1.27,0,2.53.51,3.8.78Z"/>
          <path d="M47.81,83.27c1.35-.28,2.68-.58,4.03-.86,1.14.25,2.28.72,3.42.73,12.94.04,25.87,0,38.81-.02.22.3.46.6.69.9-.28.19-.57.38-.85.58-15.35.01-30.69.02-46.04.05l-.06-1.36h0Z"/>
          <path d="M80.99,117.18c-1.27-.27-2.53-.77-3.8-.78-12.55-.05-25.08-.01-37.63,0-.24-.24-.47-.48-.72-.72.01-.25.04-.51.07-.76,1.6-.05,3.2-.11,4.8-.15h34.03c2.38.08,4.74.15,7.12.24-1.29.73-2.58,1.45-3.87,2.19h-.01Z"/>
          <path d="M47.85,84.63c15.35-.01,30.69-.02,46.04-.04.34.02.69.05,1.03.07.19.31.38.61.57.91-20.97,0-41.95,0-62.91.01.45-.52.91-1.05,1.36-1.57h10.56c1.12.21,2.24.43,3.36.64v-.02Z"/>
          <path d="M38.91,114.91c-.04.25-.06.51-.07.76-.26-.26-.51-.52-.77-.77.28,0,.56,0,.83.01h.01Z"/>
          <path d="M94.92,84.67c-.34-.02-.69-.05-1.03-.07.28-.19.57-.39.85-.58.09.2.14.43.17.65h.01Z"/>
          <path d="M53.94,66.81c1.71,2.19,2.44,3.12,3.17,4.06-4.42,7.21-8.34,8.61-11.74,4.19,2.6-2.51,5.2-5.01,8.56-8.24h.01Z"/>
        </g>
      </g>
    </g>
  </g>
</svg>