<?xml version="1.0" encoding="UTF-8"?>
<svg xmlns="http://www.w3.org/2000/svg" version="1.1" viewBox="0 0 192 192">
  <!-- Generator: Adobe Illustrator 28.6.0, SVG Export Plug-In . SVG Version: 1.2.0 Build 709)  -->
  <g>
    <g id="Layer_c4d_1">
      <path d="M180.54,71.01c-6.14-30.15-29.34-53.47-59.61-59.62C114.78,4.5,105.94.08,96,.08,43.11.08.08,43.11.08,96c0,9.75,1.49,19.15,4.2,28.02,0,0,0,.03,0,.04,12.03,39.24,48.58,67.86,91.71,67.86.64,0,1.26-.09,1.9-.1.17,0,.33.1.5.1.3,0,.57-.14.85-.16,51.38-1.74,92.67-43.97,92.67-95.75,0-9.97-4.45-18.84-11.38-24.99ZM129.51,34.26c12.44,5.76,22.52,15.81,28.28,28.23-18.25.31-33.01,15.19-33.01,33.51,0,15.86-12.91,28.78-28.78,28.78s-28.78-12.91-28.78-28.78,12.91-28.78,28.78-28.78c18.3,0,33.18-14.74,33.51-32.97ZM96,19.27c7.94,0,14.39,6.44,14.39,14.39s-6.45,14.39-14.39,14.39h-9.59c-25.4,0-45.09,7.73-58.55,22.96-2.73,3.1-5.05,6.37-7.06,9.73,7.11-35.02,38.12-61.46,75.2-61.46ZM126.7,166.28c1.32-1.3,2.6-2.63,3.79-4.03,12.78-15.08,13.47-37.47,13.47-56.66v-9.59c0-7.94,6.45-14.39,14.39-14.39s14.39,6.45,14.39,14.39c0,31.39-18.97,58.4-46.03,70.28Z"/>
    </g>
  </g>
</svg>