<?xml version="1.0" encoding="utf-8"?>
<!-- Generator: Adobe Illustrator 26.0.1, SVG Export Plug-In . SVG Version: 6.00 Build 0)  -->
<svg version="1.1" id="Layer_1" xmlns="http://www.w3.org/2000/svg" xmlns:xlink="http://www.w3.org/1999/xlink" x="0px" y="0px" viewBox="0 0 2500 2500"
	 style="enable-background:new 0 0 2500 2500;" xml:space="preserve">
<style type="text/css">
	.st0{fill:none;stroke:#000000;stroke-width:2;stroke-linecap:round;stroke-linejoin:round;stroke-miterlimit:10;}
</style>
<switch>
		<g>
			<g>
				<path d="M2026.4,24.5c93.1,212.1,103.4,324.5-13.5,576.6c11.3,12.3,23.2,26.1,36,39.2c320.3,328.8,403.9,810.1,212.8,1225.5
					c-188.3,409-613.9,662.7-1066,632.1c-243.7-16.5-460.6-103.7-644.4-265.5C4,1750.8,71,913.6,642.3,506.7
					c132.1-94.1,270.6-159,426.3-189.8c82.3-16.3,166.9-23.8,250.8-28.7c199.9-11.5,383.2-75,556.5-171.2
					C1927.2,88.6,1976.1,55.6,2026.4,24.5z M798.4,1342.2c-28,33.5-54.2,62.2-77.3,93.1c-117.1,156.6-153.9,330.5-108.4,520.9
					c44.3,185.5,143.5,336.6,315.8,418.7c140.6,67,297.8,75.5,453.3,54.9c67.2-8.9,133.3-25.5,197.6-38.1
					c-109.3-22.2-217.3-36.2-320.4-66.9c-217.8-64.8-348.5-275-344.6-486.6c2.4-130.1,76.5-223,176.7-304.7
					c-71-38.2-138.4-75.5-141.7-169.8c154.9-1,275.7-67,373.7-163.8c-61.6-20.6-126.6-37.4-187.1-64.2
					c-48.5-21.4-48.3-52.4-11.1-92.1c52.3-55.7,112.8-106.5,152.9-170.1c57.1-90.5,103.3-188.9,145.3-287.6
					c20.4-48,20.9-104.5,31-159.9c-213.7-16.5-415.7-40.9-607,41c-190.2,81.4-338.7,214.2-442.7,396.3
					c152.3-111.4,319-156.9,517.3-138.5C857.3,784.8,801,832.2,750.4,885C616.1,1025,636.7,1236.3,798.4,1342.2z M1869.3,1321.3
					c-36.8,95.3-93.3,157-175.6,189c-60.2,23.4-126.4,31-187.7,52c-161.5,55.2-243.9,221.2-133.7,369c47,62.9,103,118.5,198.2,112.9
					c83.6-4.9,168.2,8.9,252.5,11.9c15.5,0.5,32.8-9.1,47.1-17.7c39.4-23.9,77.6-49.8,116.4-74.7c144.4-93,269.2-201.3,299.1-383.6
					c22.2-135.1,19.6-269.5-11.8-402.8c-47.9-203.5-147.1-377.2-287.4-509.8c-118.8,81.3-230.5,157.7-338,231.2
					c125.1,13.1,252.3,1,373.6-83.3c7.1,86.9-18.2,152.8-48,217.9c-60.7,132.6-174.7,191.2-315,219.5
					C1713,1324.8,1784.5,1325.6,1869.3,1321.3z"/>
				<path class="st0" d="M1975,612.5c183.3,160.6,295.6,365.3,340.9,600.5c34.7,179.9,26.4,363.1-47.2,537"/>
				<path class="st0" d="M875,2393.8c151,58.1,307.9,89.3,468.5,72.6c97.2-10.1,191.9-43.5,287.7-66.4"/>
				<path class="st0" d="M718.8,493.8c-142.1,97.9-271,208.7-356.2,362.5"/>
				<path class="st0" d="M906.2,737.5c-29.2,8.3-58.3,16.7-87.5,25"/>
				<path class="st0" d="M1331.2,1756.2c-25-2.1-50-4.2-75-6.2"/>
				<path class="st0" d="M1331.2,1837.5c-25,4.2-50,8.3-75,12.5"/>
				<path class="st0" d="M593.8,756.2c2.1,25,4.2,50,6.2,75"/>
			</g>
		</g>
</switch>
</svg>
