<?xml version="1.0" encoding="UTF-8"?>
<svg xmlns="http://www.w3.org/2000/svg" version="1.1" viewBox="0 0 128 128">
  <defs>
    <style>
      .cls-guitar-1 {
        fill: none;
        stroke: #000;
        stroke-miterlimit: 10;
        stroke-width: 9px;
      }
    </style>
  </defs>
  <!-- Generator: Adobe Illustrator 28.6.0, SVG Export Plug-In . SVG Version: 1.2.0 Build 709)  -->
  <g>
    <g id="Layer_1">
      <g id="Layer_3">
        <path class="cls-guitar-1" d="M80,48.76c-10.89-12.02-21.78-12.02-27.84-8.41s-9.68,14.42-14.52,19.23-20.57,0-27.84,10.81-7.26,27.64,4.84,40.85c12.1,13.22,35.1,15.62,43.57,7.21,8.47-8.41,3.63-21.63,10.89-28.84,7.26-7.21,18.15-8.41,20.57-18.02,2.42-9.61-9.68-22.83-9.68-22.83Z"/>
        <polygon points="100.2 13.91 113.89 .32 127.58 13.91 113.89 27.51 100.2 13.91"/>
        <polygon points="50.45 67.48 103.06 15.24 112.65 24.76 60.03 77 50.45 67.48"/>
        <polygon points="26.24 80.7 46.72 101.04 40.23 107.48 19.75 87.15 26.24 80.7"/>
        <ellipse cx="52.77" cy="74.6" rx="12.1" ry="12.02"/>
        <path class="cls-guitar-1" d="M52.17,40.35c-6.05,3.6-7.26,12.02-14.52,19.23-6.05,6.01-20.57,0-27.84,10.81"/>
      </g>
    </g>
  </g>
</svg>