<?xml version="1.0" encoding="UTF-8"?>
<svg xmlns="http://www.w3.org/2000/svg" version="1.1" viewBox="0 0 800 800">
  <!-- Generator: Adobe Illustrator 28.6.0, SVG Export Plug-In . SVG Version: 1.2.0 Build 709)  -->
  <g>
    <g id="Layer_1">
      <g id="_x32_069a460dcf28295e231f3111e041a3f">
        <path d="M531.33,438.61c-17.2-80.35-102.13-175.5-195.98-196.3-97.6-21.42-162.92-22.02-239.54,28.04-22.51,14.67-60.29,39.79-95.62,77.25v124.61c49.77-104.78,163.21-192.56,290.22-160.86,215.72,53.69,181.17,201.4,155.25,261.32-46.53,107.76-217.57,154.26-270.19,51.32-57.2-111.91,70.41-130.24,70.41-130.24,0,0-33.19,31.36,8.43,72.67,28.84,28.82,83.73,2.68,102.79-47.9,16.74-44.14-19.28-105.34-98.16-111.97-66.06-5.65-165.19,43.07-175.28,141.02-9.54,92.74,33.12,131.18,95.06,172.15,61.76,40.96,194.02,56.34,269.51-15.58,82.1-78.09,106.12-158.21,83.11-265.54ZM.17.78v244.54c37.69-32.39,69.12-48.62,70.41-49.39,137.57-77.55,258.83-39.13,330.15-17.17,112.65,34.57,201.17,120.69,239.39,209.24,44.51,103.05,6,299.95-144.25,399.43-6.56,4.34-13.14,8.04-19.73,11.8h323.68V.78H.17ZM.17,668.2v94.23c5,4,9.94,7.51,14.76,10.33-4.43-1.77-9.45-4.13-14.76-6.95v33.4h140.73c-10.4-5.47-19.97-11.07-28.34-16.6-41.29-27.45-85.37-66.28-112.39-114.42Z"/>
      </g>
    </g>
  </g>
</svg>