<?xml version="1.0" encoding="UTF-8"?>
<svg xmlns="http://www.w3.org/2000/svg" version="1.1" viewBox="0 0 192 192">
  <!-- Generator: Adobe Illustrator 28.6.0, SVG Export Plug-In . SVG Version: 1.2.0 Build 709)  -->
  <g>
    <g id="Layer_1">
      <path d="M96,.13C43.17.13.13,43.17.13,96s43.04,95.87,95.87,95.87,95.87-43.04,95.87-95.87S148.83.13,96,.13ZM96,19.31c42.47,0,76.69,34.22,76.69,76.69s-34.22,76.69-76.69,76.69S19.31,138.47,19.31,96,53.53,19.31,96,19.31ZM117.05,43.03c-2.31.16-4.35,1.96-4.51,4.49l-.67,10.45c-.16,2.51-2.24,4.48-4.77,4.48h-10.32c-1.27,0-2.47-.49-3.37-1.39l-16.31-16.14c-1.41-1.41-3.58-1.85-5.39-1.01-15.05,7.04-26.54,20.38-31.06,36.66-.81,2.95,1.63,5.84,4.7,5.84h38.78c1.46,0,2.84.66,3.74,1.8l7.1,8.88c.68.85,1.05,1.91,1.05,3v48.4c0,2.74,2.3,5.04,5.04,4.81,20.07-1.74,37.19-13.82,46.02-30.88.91-1.76.55-3.93-.79-5.41l-15.47-17.11c-.8-.88-1.24-2.03-1.24-3.22v-5.47c0-2.65,2.13-4.79,4.77-4.79h12.28c3.24,0,5.5-3.14,4.61-6.25-4.7-16.42-16.47-29.86-31.85-36.72-.77-.35-1.57-.47-2.34-.41ZM104.29,72.09c3.34-.44,7.76,1.48,11.23,5.17,4.62,4.91,5.8,11.1,2.6,13.86-3.18,2.74-9.52.98-14.14-3.93-4.62-4.91-5.79-11.1-2.6-13.86.8-.69,1.79-1.09,2.9-1.24Z"/>
    </g>
  </g>
</svg>