<?xml version="1.0" encoding="UTF-8"?>
<svg xmlns="http://www.w3.org/2000/svg" version="1.1" viewBox="0 0 128 128">
  <!-- Generator: Adobe Illustrator 28.6.0, SVG Export Plug-In . SVG Version: 1.2.0 Build 709)  -->
  <g>
    <g id="Layer_1">
      <g id="Layer_1-2" data-name="Layer_1">
        <g>
          <path d="M63.96.04c35.44.04,63.84,28.73,63.79,64.41-.05,35.17-28.7,63.58-64.08,63.53C28.38,127.92-.03,99.22.05,63.7.12,28.63,28.85,0,63.96.04ZM109.17,64.04c0-59.72-90.53-58.86-90.49.04.03,58.74,90.5,59.39,90.49-.04Z"/>
          <path d="M73.48,40.08c-14.43,9.67,4.28,29,14.02,14.74,10.65,23.84-20.73,45.25-39.94,28.96-21.33-18.1-.82-54.22,25.91-43.7h.01Z"/>
        </g>
      </g>
    </g>
  </g>
</svg>