<?xml version="1.0" encoding="UTF-8"?>
<svg xmlns="http://www.w3.org/2000/svg" version="1.1" viewBox="0 0 128 128">
  <!-- Generator: Adobe Illustrator 28.6.0, SVG Export Plug-In . SVG Version: 1.2.0 Build 709)  -->
  <g>
    <g id="Layer_1">
      <g id="Layer_1-2" data-name="Layer_1">
        <path d="M.01,58.02c4.28-17.24,7.61-28.06,20.54-39.99C32.55,6.94,48.78.79,65.13,1.04c32.59.46,59.04,25.71,62.29,57.77,3.46,34.16-23.35,64.78-57.22,67.84-15.99,1.45-31.99-2.46-44.75-12.36C9.73,102.07,4.3,90.55.02,70.48v-12.48h-.01ZM102.75,47.7c-10.71-7.56-18.16-15.62-21.51-28.55-1.12-4.31-.24-11.34-3.95-14.22-4.13-3.22-14.59-1.81-19.41-1.31C30.39,6.53,7.35,28.01,3.21,55.39c-4.14,27.22,12.17,55.03,37.77,65.37,9.54,3.85,28.86,8.1,38.2,1.8,4.81-3.24,6.33-9.77,11.67-12.97,4.73-2.84,10.81-3.51,16.1-4.76-7.99-4.13-21.39-8.97-30.38-5.05-6.93,3.02-10.78,10.43-1.28,12.74-7.53.06-9.92-4.3-5.4-10.56,4.99-6.9,15.76-5.31,23.08-5.42-20.44-10.48-47.46,19.5-23.83,25.6-18.68,1.89-11.28-18.16-4.41-26.16-7.84,3.26-11.09,10.76-17.04,16.95,4.55-17.66,13.8-29.52,31.81-33.28-18.59-2.89-29.14,21.61-48.25,20.59-16.84-.9-26.26-16.68-24.09-32.5.24,4.09.52,7.01,3,10.64-.87-13.12,3.74-37.33,23.44-28.27-22.95-.38-17.68,33.61-.88,27.03-4.76-.52-7.94-2.11-9.54-4.74,12.25,8.86,23.45-6.36,31.62-13.66-21.99-9.15-27.15-21.15-23.9-33.4-.87,16.9,12.53,28.07,25.88,29.8-10.87-5.68-23.14-12.83-22.87-26.82.27-14.19,13.17-23.09,26.59-20.86-20.6,5.72-2.94,31.5,9.69,35.51-3.86-5.05-16.8-26.94-.41-25.85-16.34,19.22,17.7,33,33.01,30.55v.02ZM125.24,60.2c-10.83-13.26-37.86-2.3-52.7-6.22-15.49-4.09-23.29-14.27-26.95-29.21-4.68,16.65,15.68,29.54,29.41,32.05,9.71,1.78,19-.93,28.72-.82,7.51.09,14.25,2.25,21.53,4.19h-.01Z"/>
      </g>
    </g>
  </g>
</svg>