<?xml version="1.0" encoding="UTF-8"?>
<svg xmlns="http://www.w3.org/2000/svg" version="1.1" viewBox="0 0 128 128">
  <defs>
    <style>
      .cls-osl-1 {
        opacity: .9;
      }

      .cls-osl-2 {
        opacity: .8;
      }

      .cls-osl-3 {
        opacity: .66;
      }

      .cls-osl-4 {
        opacity: .5;
      }
    </style>
  </defs>
  <!-- Generator: Adobe Illustrator 28.6.0, SVG Export Plug-In . SVG Version: 1.2.0 Build 709)  -->
  <g>
    <g id="Layer_1">
      <g>
        <path d="M128.11,67.73c-1.26,7.28-3.85-.52-3.78-3.96.07-3.32,2.73-10.63,3.78-3.51v7.47Z"/>
        <path d="M60.59,128.11c-7.22-1.25-.12-3.73,3.49-3.78,3.38-.04,11.11,2.6,3.77,3.78h-7.25Z"/>
        <path d="M106.52,90.32c4.8-.16,8.13,9.31,6.35,12.75-2.18,4.21-9.57,11.76-14.57,10.58-6.52-1.55-9.49-7.62-5.33-12.52,3.01-3.55,8.52-10.75,13.55-10.8Z"/>
        <g class="cls-osl-2">
          <path d="M64.19,47.55c5.45-.07,16.45,11.13,16.46,16.53.01,5.51-11.01,16.56-16.53,16.57-5.49,0-16.58-11.08-16.57-16.56,0-5.52,11.14-16.59,16.64-16.54Z"/>
          <path d="M27.72,84.42c-.2-4.99,10.18-15.38,15.41-14.25,4.4.95,14.57,10.94,15.02,15.68.49,5.21-9.39,14.34-14.29,14.56-5.47.25-16.23-10.28-16.14-15.99Z"/>
          <path d="M85.12,27.72c5.13.07,15.23,10.7,15.31,15.64.07,4.41-8.39,14.12-13.08,14.79-5.34.76-16.81-10.78-17.29-15.75-.52-5.31,9.8-14.7,15.06-14.67Z"/>
          <path d="M21.77,90.33c4.92.04,9.32,6.53,12.54,9.85,4.81,4.96,4.04,8.47-2.14,12.12-6.15,3.62-11.28-2.31-15.23-7.19-1.98-2.45-3.38-4.77-2.01-7.88.7-1.58,4.71-6.96,6.84-6.9Z"/>
          <path d="M106.06,37.88c-4.2-.07-12.49-8.82-14.49-12.32-2.63-4.6,2.05-10.24,7.01-11.3,4.69-1,11.69,6.58,13.83,10.22,2.42,4.09-.58,13.38-6.35,13.4Z"/>
        </g>
        <path d="M125.23,79.24c-.05,3.13-3.08,15.76-7.3,16.07-3.56.25-7.55-8.78-7.1-11.58.54-3.38,5.57-10.98,8.33-12.7,2.87-1.79,1.81-1.99,3.9,1.04,1.26,1.82,2.2,4.95,2.16,7.18Z"/>
        <path d="M79.31,125.24c-1.77.03-8.34-1.43-9.05-3.06-1-2.34-.67-.8,1.35-3.44,2.18-2.85,9.69-8.33,13.64-8.12,2.69.14,10.25,4.78,9.93,7.6-.45,4.07-12.86,6.94-15.88,7.02Z"/>
        <g class="cls-osl-4">
          <path d="M67.84.11c6.25,1.22,1.19,3.47-2.73,3.77-3.08.23-12.63-2.57-4.73-3.77,2.49,0,4.98,0,7.47,0Z"/>
          <path d="M.11,60.37c1.13-6.37,3.37-1.4,3.75,2.47.3,3.13-2.56,12.76-3.75,5,0-2.49,0-4.98,0-7.47Z"/>
          <path d="M22.12,37.87c-2.53.12-5.47-4.16-6.53-6.11-1.48-2.72-1.76-3.94.05-6.91,3.06-5.03,10.06-12.4,16.01-9.35,4.65,2.39,7.66,6.04,4.51,10.69-2.41,3.55-9.53,11.68-14.04,11.68Z"/>
          <path d="M43.03,17.61c-2.87-.05-5.94-2.53-7.77-4.58-2.38-2.65-3.07-1.7-.71-4.66,2.78-3.49,11.35-5.82,15.61-5.28,2.46.31,8.7,1.84,8.32,4.7-.44,3.29-12.14,9.63-15.44,9.82Z"/>
          <path d="M2.98,48.93c.04-3.09,2.64-14.5,6.54-15.61,3.63-1.04,8.33,7.75,7.95,10.9-.35,2.92-6.34,12.44-8.88,13.54-3.69,1.6-5.68-5.4-5.61-8.83Z"/>
        </g>
        <g class="cls-osl-3">
          <path d="M27.72,43.94c.02-5.62,9.84-15.9,15.45-16.21,5.23-.29,15.15,9.53,14.91,14.41-.24,4.87-10.71,15.3-15.47,15.94-4.79.64-15.08-9.21-14.9-14.14Z"/>
          <path d="M79.37,22.86c-.38,4.1-10.64,12.74-14.6,13.1-4.63.42-15.95-8.52-15.92-13.24.03-4.77,10.99-11.42,15.21-11.44,4.48-.02,15.02,6.67,15.31,11.59Z"/>
          <path d="M35.96,64.06c.08,4.15-7.81,13.97-11.8,15.07-5.11,1.41-11.64-8.86-12.65-12.93-1.27-5.12,5.98-17.92,11.8-17.24,4.05.47,12.77,10.87,12.65,15.1Z"/>
          <path d="M79.63,2.98c4.03.14,11.16,2.17,13.96,5.33,3.47,3.93-3.19,8.4-7.37,9.08-4.72.76-11.93-4.75-14.83-8.11-3.91-4.55,3.94-6.3,8.24-6.3Z"/>
          <path d="M2.98,79.32c-.05-3.52,1.82-11.16,5.78-8.69,3.22,2.01,8.96,10.79,8.75,14.65-.13,2.44-4.45,10.27-7.08,10-4.41-.46-7.35-12.55-7.44-15.96Z"/>
        </g>
        <g class="cls-osl-1">
          <path d="M100.5,84.41c-.03,5.31-9.05,14.64-14.13,15.87-5.58,1.35-16.51-8.83-16.22-14.23.28-5.2,11.47-16.17,16.62-15.97,4.69.18,13.37,9.55,13.73,14.32Z"/>
          <path d="M64.25,117.03c-4.57-.16-15.2-6.38-15.28-11.57-.07-4.18,10.5-12.84,14.42-13.22,4.57-.44,15.03,7.97,15.87,12.24,1.11,5.66-10.59,12.07-15,12.55Z"/>
          <path d="M92.25,64.22c-.06-4.21,7.69-13.93,11.74-15.11,5.57-1.63,12.67,9.88,12.96,14.44.29,4.58-6.84,16.34-12.07,15.7-3.93-.48-12.83-10.85-12.63-15.03Z"/>
          <path d="M125.26,48.92c.05,1.62-1.47,8.31-3.12,9.09-2,.95-.71.56-2.95-.79-3.15-1.9-9-10.98-8.52-14.9.49-4.02,5.62-10.7,9.18-7.77,3.47,2.85,5.06,10.19,5.42,14.37Z"/>
          <path d="M48.95,125.28c-3.1-.1-15.82-3.16-16.05-7.38-.17-3.04,8.13-7.35,10.6-7.26,3.07.11,12.74,5.98,14.13,8.86,1.98,4.09-4.97,5.36-8.68,5.78Z"/>
        </g>
      </g>
    </g>
  </g>
</svg>