<?xml version="1.0" encoding="UTF-8"?>
<svg xmlns="http://www.w3.org/2000/svg" version="1.1" viewBox="0 0 96 96">
  <!-- Generator: Adobe Illustrator 28.6.0, SVG Export Plug-In . SVG Version: 1.2.0 Build 709)  -->
  <g>
    <g id="Layer_1">
      <path d="M.11.11v95.78h95.78V.11H.11ZM20.81,26.72h14.36c12.38,0,13.85,11.39,13.85,13.86,0,9.9-6.93,13.35-13.36,13.35h-5.94v14.85h-8.91V26.72ZM29.72,33.65v13.36h5.94c3.96,0,4.95-2.97,4.95-6.43,0-3.47-1.48-6.93-4.95-6.93h-5.94ZM64.87,37.11c7.42,0,11.38,4.46,11.38,9.9h-8.41c0-2.47-.99-3.96-2.97-3.96-1.48,0-2.97.99-2.97,2.97,0,4.95,14.36,3.46,14.36,14.35,0,7.42-7.43,8.91-11.39,8.91-7.92,0-11.88-5.44-11.88-10.39h7.92c0,3.96,2.97,4.46,3.96,4.46,1.98,0,3.46-.99,3.46-2.97,0-4.45-14.36-3.96-14.36-13.86,0-7.42,6.94-9.41,10.9-9.41Z"/>
    </g>
  </g>
</svg>