<?xml version="1.0" encoding="UTF-8"?>
<svg xmlns="http://www.w3.org/2000/svg" version="1.1" viewBox="0 0 90 90">
  <!-- Generator: Adobe Illustrator 28.6.0, SVG Export Plug-In . SVG Version: 1.2.0 Build 709)  -->
  <g>
    <g id="Layer_1">
      <g id="Layer_1-2" data-name="Layer_1">
        <path d="M37.52.12c-8.26,0-14.96,6.7-14.96,14.96v3.74h18.7c2.06,0,3.74,1.68,3.74,3.74s-1.68,3.74-3.74,3.74H15.08C6.82,26.3.12,33,.12,41.26v14.96c0,8.26,6.7,14.96,14.96,14.96h3.74v-18.7c0-6.19,5.03-11.22,11.22-11.22h29.92c2.06,0,3.74-1.68,3.74-3.74V15.08C63.7,6.82,57,.12,48.74.12h-11.22ZM33.78,7.6c2.06,0,3.74,1.68,3.74,3.74s-1.68,3.74-3.74,3.74-3.74-1.68-3.74-3.74,1.68-3.74,3.74-3.74Z"/>
      </g>
      <path d="M86.69,44.11h-36.06v26.22h-3.28c-5.43,0-9.83,4.4-9.83,9.83s4.4,9.83,9.83,9.83,9.83-4.4,9.83-9.83v-22.95h22.95v13.11h-3.28c-5.43,0-9.83,4.4-9.83,9.83s4.4,9.83,9.83,9.83,9.83-4.4,9.83-9.83v-36.06Z"/>
    </g>
  </g>
</svg>