<?xml version="1.0" encoding="UTF-8"?>
<svg xmlns="http://www.w3.org/2000/svg" version="1.1" viewBox="0 0 90 90">
  <!-- Generator: Adobe Illustrator 28.6.0, SVG Export Plug-In . SVG Version: 1.2.0 Build 709)  -->
  <g>
    <g id="Layer_1">
      <path d="M37.52.12c-8.26,0-14.96,6.7-14.96,14.96v3.74h18.7c2.06,0,3.74,1.68,3.74,3.74s-1.68,3.74-3.74,3.74H15.08C6.82,26.3.12,33,.12,41.26v14.96c0,8.26,6.7,14.96,14.96,14.96h3.74v-18.7c0-6.19,5.03-11.22,11.22-11.22h29.92c2.06,0,3.74-1.68,3.74-3.74V15.08C63.7,6.82,57,.12,48.74.12h-11.22ZM33.78,7.6c2.06,0,3.74,1.68,3.74,3.74s-1.68,3.74-3.74,3.74-3.74-1.68-3.74-3.74,1.68-3.74,3.74-3.74ZM71.18,18.82v18.7c0,6.19-5.03,11.22-11.22,11.22h-29.92c-2.06,0-3.74,1.68-3.74,3.74v22.44c0,8.26,6.7,14.96,14.96,14.96h11.22c8.26,0,14.96-6.7,14.96-14.96v-3.74h-18.7c-2.06,0-3.74-1.68-3.74-3.74s1.68-3.74,3.74-3.74h26.18c8.26,0,14.96-6.7,14.96-14.96v-14.96c0-8.26-6.7-14.96-14.96-14.96h-3.74ZM56.22,74.92c2.06,0,3.74,1.68,3.74,3.74s-1.68,3.74-3.74,3.74-3.74-1.68-3.74-3.74,1.68-3.74,3.74-3.74Z"/>
    </g>
  </g>
</svg>