<?xml version="1.0" encoding="UTF-8"?>
<svg xmlns="http://www.w3.org/2000/svg" version="1.1" viewBox="0 0 96 96">
  <!-- Generator: Adobe Illustrator 28.6.0, SVG Export Plug-In . SVG Version: 1.2.0 Build 709)  -->
  <g>
    <g id="Layer_1">
      <path d="M48,.21C21.66.21.21,21.66.21,48s21.45,47.79,47.79,47.79,47.79-21.45,47.79-47.79S74.34.21,48,.21ZM48,9.77c21.17,0,38.23,17.06,38.23,38.23s-17.06,38.23-38.23,38.23S9.77,69.17,9.77,48,26.83,9.77,48,9.77ZM48,19.33c-5.28,0-9.56,4.26-9.56,9.53,0,7.94,9.56,14.36,9.56,14.36,0,0,9.56-6.42,9.56-14.36,0-5.27-4.28-9.53-9.56-9.53ZM32.24,48.02c-1.94.08-3.87.5-5.59,1.48-4.56,2.6-6.12,8.37-3.48,12.89,2.64,4.52,8.48,6.07,13.04,3.47,6.88-3.93,7.66-15.28,7.66-15.28,0,0-5.82-2.81-11.63-2.57ZM63.76,48.02c-5.81-.25-11.63,2.57-11.63,2.57,0,0,.78,11.36,7.66,15.28,4.56,2.6,10.4,1.05,13.04-3.47,2.64-4.52,1.08-10.29-3.48-12.89-1.72-.98-3.65-1.4-5.59-1.48Z"/>
    </g>
  </g>
</svg>