<?xml version="1.0" encoding="UTF-8"?>
<svg xmlns="http://www.w3.org/2000/svg" version="1.1" viewBox="0 0 100 100">
  <defs>
    <style>
      .cls-sd-1 {
        isolation: isolate;
        opacity: .65;
      }
    </style>
  </defs>
  <!-- Generator: Adobe Illustrator 28.6.0, SVG Export Plug-In . SVG Version: 1.2.0 Build 709)  -->
  <g>
    <g id="Layer_sd_1">
      <g id="Layer_sd_1-2" data-name="Layer_sd_1">
        <path d="M19.67,31.24c-.21.46-.56.39-1.03-.18-.06-.07-.04-.18.02-.24,0,0,.01,0,.02-.01.17-.1.19-.31.07-.61-.04-.12-.17-.2-.3-.2-4.33.21-8.63.38-12.9.52-1.1.04-1.85-.43-2.8-.88-.29-.13-.52-.08-.71.18-.27.38-.76.62-1.47.72.95-10.14,8.95-17.36,18.52-19.73,12.38-3.08,24.19-1.78,35.4,3.9.62.31,1.01.95,1.01,1.65l.04,15.57c0,.39-.18.51-.53.34-1.39-.66-2.74-1.32-4.05-2.01-7.27-3.86-26.35-9.29-31.29.98Z"/>
        <path d="M19.67,31.24c-3.2,15.76,42.74,6.44,40.6,36.76l-1.62-2.13c-.52-.68-.74-.58-.67.29.03.41-.09.77-.34,1.09-.22.27-.5.4-.84.39l-15.51-.31c.12-2.59-.91-4.6-3.12-6.05-2.01-1.32-4.59-2.45-7.72-3.38C16.88,53.87-2.24,49.57.57,30.54c.71-.1,1.2-.34,1.47-.72.19-.26.42-.31.71-.18.94.44,1.7.92,2.8.88,4.28-.14,8.57-.31,12.9-.52.13,0,.26.08.3.2.12.3.1.51-.07.61-.08.06-.11.16-.06.23,0,0,0,.01.01.02.48.57.82.63,1.03.18Z"/>
        <path d="M41.28,67.32l15.51.31c.34,0,.62-.12.84-.39.26-.32.38-.68.34-1.09-.08-.87.14-.97.67-.29l1.62,2.13c-.83,28.11-43.14,27.38-59.21,15.66-.29-.21-.47-.56-.47-.92v-17.47c.01-.43.18-.52.52-.26,9.88,7.68,19.72,11.46,32.24,9.38,4.19-.7,6.83-3.05,7.93-7.07h0Z"/>
        <circle class="cls-sd-1" cx="87.76" cy="78.64" r="11.6"/>
      </g>
    </g>
  </g>
</svg>