<?xml version="1.0" encoding="UTF-8"?>
<svg xmlns="http://www.w3.org/2000/svg" version="1.1" viewBox="0 0 128 128">
  <!-- Generator: Adobe Illustrator 28.6.0, SVG Export Plug-In . SVG Version: 1.2.0 Build 709)  -->
  <g>
    <g id="Layer_1">
      <g>
        <path d="M63.74,1.11c23.16.28,54.28,4.47,61.93,30.38,3.85,13.03-.92,27.98-5.62,40.2-4.84,12.59-11.79,24.51-20.57,34.76-8.01,9.35-16.8,18.61-29.4,20.88-13.84,2.5-25.54-3.3-35.12-12.87C16.64,96.16,2.39,70.25.48,44.05-.49,30.67,6.33,17.36,17.95,10.57,31.33,2.75,48.66,1.83,63.74,1.11ZM63.43,117.62c12.91-.02,21.5-9.64,29.17-18.96,8.08-9.81,14.39-21.06,18.73-33,3.72-10.24,7.75-22.6,3.89-33.31-3.36-9.29-11.27-14.09-20.41-16.65-11.63-3.25-23.2-4.39-35.25-4.19-6,.1-11.93.85-17.82,2.02-5.56,1.11-11.53,2.25-16.65,4.76-7.98,3.91-13.55,11.67-14.34,20.56-.99,11.04,3.48,23.54,7.74,33.55,4.58,10.75,10.86,20.7,18.6,29.45,7.11,8.04,14.93,15.72,26.35,15.75Z"/>
        <path d="M74.38,95.78c-14.55-16.98-29.1-33.95-43.65-50.93.06-.12.12-.24.18-.35,8.48,1.99,16.96,3.99,25.54,6.01,6.11,15.04,12.2,30.04,18.3,45.05-.12.07-.25.15-.37.22Z"/>
        <path d="M59.2,51.16c6.14,2.01,12.28,4.02,18.63,6.1.17,13.71.33,27.38.5,41.05-.15.03-.3.06-.45.09-6.32-15.67-12.63-31.34-18.95-47.01l.27-.24Z"/>
        <path d="M62.15,31.52c-1.91,5.31-3.81,10.63-5.79,16.15-7.9-1.79-15.66-3.55-23.41-5.3-.03-.13-.05-.27-.08-.4,9.66-3.59,19.33-7.17,28.99-10.76.1.1.19.21.29.31Z"/>
        <path d="M75.01,53.49c-5.29-1.72-10.58-3.44-16.19-5.26,1.97-5.71,3.89-11.24,5.8-16.78.13-.01.25-.02.38-.03,3.42,7.24,6.85,14.48,10.27,21.72-.09.12-.17.23-.26.35Z"/>
        <path d="M77.45,52.23c-3.4-7.19-6.81-14.38-10.33-21.81h10.59v21.73c-.09.03-.17.05-.26.08Z"/>
      </g>
    </g>
  </g>
</svg>