<?xml version="1.0" encoding="UTF-8"?>
<svg xmlns="http://www.w3.org/2000/svg" version="1.1" viewBox="0 0 800 800">
  <defs>
    <style>
      .cls-1 {
        fill-rule: evenodd;
      }

      .cls-2 {
        display: none;
      }
    </style>
  </defs>
  <!-- Generator: Adobe Illustrator 28.6.0, SVG Export Plug-In . SVG Version: 1.2.0 Build 709)  -->
  <g>
    <g id="Layer_1" class="cls-2">
      <path class="cls-1" d="M0,250h550v550H0V250ZM196.43,564.29l78.57,78.57,196.43-196.43v275H78.57v-39.29l117.86-117.86ZM216.07,485.71c32.55,0,58.93-26.38,58.93-58.93s-26.38-58.93-58.93-58.93-58.93,26.38-58.93,58.93,26.38,58.93,58.93,58.93Z"/>
    </g>
    <g id="Layer_2">
      <path class="cls-1" d="M172.55,627.45V250H0v550h550v-172.55H172.55ZM113.59,752.19h-56.97v-56.97h56.97v56.97ZM113.59,618.38h-56.97v-56.97h56.97v56.97ZM113.59,484.56h-56.97v-56.97h56.97v56.97ZM113.59,350.75h-56.97v-56.97h56.97v56.97ZM488.08,752.19h-56.97v-56.97h56.97v56.97Z"/>
      <path class="cls-1" d="M250.85,1.18v550h550V1.18H250.85ZM364.44,503.37h-56.97v-56.97h56.97v56.97ZM364.44,369.56h-56.97v-56.97h56.97v56.97ZM364.44,235.74h-56.97v-56.97h56.97v56.97ZM364.44,101.93h-56.97v-56.97h56.97v56.97ZM444.62,375.99v-199.61l162.47,99.81-162.47,99.81ZM738.93,503.37h-56.97v-56.97h56.97v56.97ZM738.93,369.56h-56.97v-56.97h56.97v56.97ZM738.93,235.74h-56.97v-56.97h56.97v56.97ZM738.93,101.93h-56.97v-56.97h56.97v56.97Z"/>
    </g>
  </g>
</svg>