<?xml version="1.0" encoding="UTF-8"?>
<svg xmlns="http://www.w3.org/2000/svg" version="1.1" viewBox="0 0 128 128">
  <!-- Generator: Adobe Illustrator 28.6.0, SVG Export Plug-In . SVG Version: 1.2.0 Build 709)  -->
  <g>
    <g id="Layer_1">
      <g>
        <g>
          <path d="M40.99,87.93c-.48-.46-.95-.94-1.4-1.43l45.91-45.91c.49.45.96.92,1.43,1.4l-45.94,45.94Z"/>
          <path d="M85.51,41.28c.24.23.48.46.71.7l-45.24,45.24c-.24-.24-.47-.47-.7-.71l45.23-45.23M85.48,39.9l-46.59,46.59c.67.75,1.37,1.46,2.1,2.14l46.63-46.63c-.68-.73-1.4-1.43-2.14-2.1h0Z"/>
        </g>
        <g>
          <path d="M.5,127.5V.5h127v127H.5ZM16.48,108.19l2.83,2.83,21.7-21.7c6.18,5.6,14.14,8.68,22.49,8.68,18.47,0,33.5-15.03,33.5-33.5,0-8.35-3.08-16.31-8.68-22.49l21.2-21.2-2.83-2.83-21.23,21.23c-6.1-5.3-13.88-8.21-21.96-8.21-18.47,0-33.5,15.03-33.5,33.5,0,8.09,2.91,15.87,8.21,21.96l-21.73,21.73Z"/>
          <path d="M127,1v126H1V1h126M85.44,38.53c-6.13-5.18-13.88-8.03-21.94-8.03-18.75,0-34,15.25-34,34,0,8.05,2.84,15.8,8.03,21.94l-21.05,21.05-.71.71.71.71,2.12,2.12.71.71.71-.71,21.01-21.01c6.22,5.48,14.16,8.49,22.47,8.49,18.75,0,34-15.25,34-34,0-8.31-3.01-16.25-8.49-22.47l20.51-20.51.71-.71-.71-.71-2.12-2.12-.71-.71-.71.71-20.55,20.55M128,0H0v128h128V0h0ZM85.48,39.9l21.21-21.21,2.12,2.12-21.18,21.18c5.5,5.9,8.87,13.8,8.87,22.5,0,18.23-14.77,33-33,33-8.7,0-16.61-3.37-22.5-8.87l-21.68,21.68-2.12-2.12,21.71-21.71c-5.22-5.84-8.4-13.54-8.4-21.98,0-18.23,14.77-33,33-33,8.45,0,16.15,3.18,21.98,8.4h0Z"/>
        </g>
      </g>
    </g>
  </g>
</svg>